<svg xmlns="http://www.w3.org/2000/svg" version="1.1" xmlns:xlink="http://www.w3.org/1999/xlink" xmlns:svgjs="http://svgjs.dev/svgjs" viewBox="0 0 12.760350564493363 12.688913050563093"><g transform="matrix(1,0,0,1,1.0603809707232452,10.524532079839847)"><g><path d=" M 0.5235 0.020999999999999908 L 0.5235 0.050999999999999934 Q 0.47250000000000003 0.05249999999999999 0.44625000000000004 0.062249999999999917 Q 0.42 0.07199999999999984 0.41100000000000003 0.09824999999999995 Q 0.402 0.12449999999999994 0.402 0.17999999999999994 L 0.402 0.942 Q 0.402 0.9884999999999999 0.40875 1.011 Q 0.41550000000000004 1.0334999999999999 0.43575 1.041 Q 0.456 1.0485 0.4965 1.0485 L 0.5700000000000001 1.0485 Q 0.639 1.0485 0.69525 1.0065 Q 0.7515000000000001 0.9644999999999999 0.7897500000000001 0.8887499999999999 Q 0.8280000000000001 0.813 0.843 0.714 L 0.8775000000000001 0.714 Q 0.873 0.7649999999999999 0.873 0.846 Q 0.873 0.8805 0.8745 0.9464999999999999 Q 0.876 1.0125 0.8835000000000001 1.083 Q 0.807 1.08 0.711 1.07925 Q 0.615 1.0785 0.54 1.0785 Q 0.489 1.0785 0.405 1.0785 Q 0.321 1.0785 0.2265 1.07925 Q 0.132 1.08 0.051000000000000004 1.083 L 0.051000000000000004 1.053 Q 0.099 1.05 0.123 1.041 Q 0.147 1.032 0.15525 1.005 Q 0.1635 0.978 0.1635 0.9239999999999999 L 0.1635 0.17999999999999994 Q 0.1635 0.12449999999999994 0.15525 0.09824999999999995 Q 0.147 0.07199999999999984 0.12225 0.062249999999999917 Q 0.0975 0.05249999999999999 0.051000000000000004 0.050999999999999934 L 0.051000000000000004 0.020999999999999908 Q 0.0885 0.022499999999999964 0.15225 0.02400000000000002 Q 0.216 0.025499999999999856 0.28800000000000003 0.025499999999999856 Q 0.354 0.025499999999999856 0.41775 0.02400000000000002 Q 0.4815 0.022499999999999964 0.5235 0.020999999999999908 M 1.515034423828125 0 Q 1.674034423828125 0 1.793284423828125 0.0645 Q 1.912534423828125 0.1289999999999999 1.9785344238281248 0.24974999999999992 Q 2.044534423828125 0.37049999999999994 2.044534423828125 0.5429999999999999 Q 2.044534423828125 0.711 1.9770344238281252 0.837 Q 1.9095344238281249 0.963 1.788784423828125 1.0334999999999999 Q 1.668034423828125 1.1039999999999999 1.513534423828125 1.1039999999999999 Q 1.354534423828125 1.1039999999999999 1.235284423828125 1.0394999999999999 Q 1.116034423828125 0.975 1.050034423828125 0.8534999999999999 Q 0.984034423828125 0.732 0.984034423828125 0.5609999999999999 Q 0.984034423828125 0.3929999999999999 1.052284423828125 0.2669999999999999 Q 1.120534423828125 0.1409999999999999 1.239784423828125 0.07050000000000001 Q 1.359034423828125 0 1.515034423828125 0 M 1.509034423828125 0.026999999999999913 Q 1.4250344238281252 0.026999999999999913 1.362784423828125 0.09449999999999992 Q 1.300534423828125 0.16199999999999992 1.266784423828125 0.28049999999999997 Q 1.233034423828125 0.3989999999999999 1.233034423828125 0.5549999999999999 Q 1.233034423828125 0.714 1.2712844238281251 0.83175 Q 1.309534423828125 0.9495 1.374784423828125 1.01325 Q 1.4400344238281249 1.077 1.519534423828125 1.077 Q 1.603534423828125 1.077 1.665784423828125 1.0095 Q 1.728034423828125 0.942 1.761784423828125 0.82275 Q 1.795534423828125 0.7035 1.795534423828125 0.5489999999999999 Q 1.795534423828125 0.38849999999999996 1.7572844238281249 0.27149999999999996 Q 1.719034423828125 0.15449999999999997 1.653784423828125 0.09075 Q 1.5885344238281252 0.026999999999999913 1.509034423828125 0.026999999999999913 M 3.11107177734375 0.020999999999999908 L 3.11107177734375 0.050999999999999934 Q 3.06307177734375 0.05699999999999994 3.03832177734375 0.07574999999999998 Q 3.01357177734375 0.09449999999999992 3.00607177734375 0.1349999999999999 Q 2.9985717773437504 0.1755 2.9985717773437504 0.249 L 2.9985717773437504 0.6465 Q 2.9985717773437504 0.744 2.9850717773437503 0.825 Q 2.97157177734375 0.9059999999999999 2.9370717773437502 0.9644999999999999 Q 2.89807177734375 1.029 2.8230717773437504 1.0665 Q 2.74807177734375 1.1039999999999999 2.6325717773437503 1.1039999999999999 Q 2.5635717773437503 1.1039999999999999 2.4915717773437502 1.08825 Q 2.41957177734375 1.0725 2.3625717773437502 1.029 Q 2.31457177734375 0.9884999999999999 2.28907177734375 0.9375 Q 2.26357177734375 0.8865 2.25457177734375 0.81675 Q 2.2455717773437502 0.7469999999999999 2.2455717773437502 0.651 L 2.2455717773437502 0.17999999999999994 Q 2.2455717773437502 0.12449999999999994 2.2373217773437504 0.09824999999999995 Q 2.22907177734375 0.07199999999999984 2.20507177734375 0.062249999999999917 Q 2.18107177734375 0.05249999999999999 2.1330717773437504 0.050999999999999934 L 2.1330717773437504 0.020999999999999908 Q 2.17057177734375 0.022499999999999964 2.2343217773437503 0.02400000000000002 Q 2.2980717773437505 0.025499999999999856 2.3670717773437504 0.025499999999999856 Q 2.4360717773437504 0.025499999999999856 2.49982177734375 0.02400000000000002 Q 2.5635717773437503 0.022499999999999964 2.60557177734375 0.020999999999999908 L 2.60557177734375 0.050999999999999934 Q 2.5545717773437504 0.05249999999999999 2.5283217773437503 0.062249999999999917 Q 2.50207177734375 0.07199999999999984 2.4930717773437503 0.09824999999999995 Q 2.4840717773437504 0.12449999999999994 2.4840717773437504 0.17999999999999994 L 2.4840717773437504 0.7454999999999999 Q 2.4840717773437504 0.846 2.50207177734375 0.91425 Q 2.5200717773437504 0.9824999999999999 2.5658217773437504 1.017 Q 2.6115717773437503 1.0514999999999999 2.6910717773437502 1.0514999999999999 Q 2.7960717773437502 1.0514999999999999 2.8553217773437503 1.002 Q 2.9145717773437503 0.9524999999999999 2.9393217773437503 0.8647499999999999 Q 2.9640717773437504 0.7769999999999999 2.9640717773437504 0.663 L 2.9640717773437504 0.2669999999999999 Q 2.9640717773437504 0.1845 2.9535717773437504 0.14024999999999999 Q 2.94307177734375 0.09599999999999997 2.91232177734375 0.07650000000000001 Q 2.8815717773437504 0.05699999999999994 2.81857177734375 0.050999999999999934 L 2.81857177734375 0.020999999999999908 Q 2.8470717773437504 0.022499999999999964 2.8935717773437504 0.02400000000000002 Q 2.9400717773437504 0.025499999999999856 2.98057177734375 0.025499999999999856 Q 3.01657177734375 0.025499999999999856 3.05182177734375 0.02400000000000002 Q 3.08707177734375 0.022499999999999964 3.11107177734375 0.020999999999999908 M 3.9946105957031253 0.020999999999999908 Q 3.9886105957031255 0.08699999999999997 3.9863605957031254 0.14849999999999997 Q 3.9841105957031253 0.20999999999999996 3.9841105957031253 0.243 Q 3.9841105957031253 0.2729999999999999 3.9856105957031254 0.29999999999999993 Q 3.9871105957031254 0.32699999999999996 3.9886105957031255 0.345 L 3.9541105957031255 0.345 Q 3.9391105957031254 0.23549999999999993 3.9076105957031255 0.17174999999999996 Q 3.876110595703125 0.10799999999999998 3.8258605957031255 0.08174999999999999 Q 3.7756105957031254 0.05549999999999988 3.7081105957031255 0.05549999999999988 L 3.6466105957031254 0.05549999999999988 Q 3.6016105957031255 0.05549999999999988 3.5798605957031255 0.06299999999999994 Q 3.558110595703125 0.07050000000000001 3.5506105957031253 0.09224999999999994 Q 3.5431105957031255 0.11399999999999999 3.5431105957031255 0.16199999999999992 L 3.5431105957031255 0.942 Q 3.5431105957031255 0.9884999999999999 3.5506105957031253 1.011 Q 3.558110595703125 1.0334999999999999 3.5798605957031255 1.041 Q 3.6016105957031255 1.0485 3.6466105957031254 1.0485 L 3.720110595703125 1.0485 Q 3.7876105957031254 1.0485 3.839360595703125 1.01925 Q 3.8911105957031253 0.99 3.9278605957031254 0.9195 Q 3.9646105957031255 0.849 3.9841105957031253 0.729 L 4.018610595703126 0.729 Q 4.014110595703126 0.7769999999999999 4.014110595703126 0.855 Q 4.014110595703126 0.8895 4.015610595703126 0.9524999999999999 Q 4.017110595703126 1.0154999999999998 4.024610595703125 1.083 Q 3.9481105957031253 1.08 3.852110595703125 1.07925 Q 3.7561105957031256 1.0785 3.6811105957031254 1.0785 Q 3.630110595703125 1.0785 3.5461105957031256 1.0785 Q 3.4621105957031255 1.0785 3.3676105957031255 1.07925 Q 3.2731105957031255 1.08 3.1921105957031255 1.083 L 3.1921105957031255 1.053 Q 3.2401105957031255 1.05 3.2641105957031256 1.041 Q 3.288110595703125 1.032 3.2963605957031255 1.005 Q 3.3046105957031253 0.978 3.3046105957031253 0.9239999999999999 L 3.3046105957031253 0.17999999999999994 Q 3.3046105957031253 0.12449999999999994 3.2963605957031255 0.09824999999999995 Q 3.288110595703125 0.07199999999999984 3.2633605957031255 0.062249999999999917 Q 3.2386105957031255 0.05249999999999999 3.1921105957031255 0.050999999999999934 L 3.1921105957031255 0.020999999999999908 Q 3.2731105957031255 0.022499999999999964 3.3676105957031255 0.02400000000000002 Q 3.4621105957031255 0.025499999999999856 3.5461105957031256 0.025499999999999856 Q 3.630110595703125 0.025499999999999856 3.6811105957031254 0.025499999999999856 Q 3.7501105957031253 0.025499999999999856 3.837860595703125 0.02475000000000005 Q 3.9256105957031253 0.02400000000000002 3.9946105957031253 0.020999999999999908 M 3.7606105957031253 0.5339999999999999 Q 3.7606105957031253 0.5339999999999999 3.7606105957031253 0.5489999999999999 Q 3.7606105957031253 0.564 3.7606105957031253 0.564 L 3.4981105957031255 0.564 Q 3.4981105957031255 0.564 3.4981105957031255 0.5489999999999999 Q 3.4981105957031255 0.5339999999999999 3.4981105957031255 0.5339999999999999 L 3.7606105957031253 0.5339999999999999 M 3.8041105957031256 0.33599999999999997 Q 3.7981105957031254 0.4215 3.7988605957031254 0.4664999999999999 Q 3.7996105957031254 0.5115 3.7996105957031254 0.5489999999999999 Q 3.7996105957031254 0.5865 3.8011105957031255 0.6315 Q 3.8026105957031255 0.6764999999999999 3.8086105957031253 0.762 L 3.7741105957031253 0.762 Q 3.7666105957031255 0.7095 3.746360595703125 0.6645 Q 3.7261105957031253 0.6194999999999999 3.688610595703125 0.59175 Q 3.651110595703125 0.564 3.5911105957031255 0.564 L 3.5911105957031255 0.5339999999999999 Q 3.651110595703125 0.5339999999999999 3.6871105957031256 0.501 Q 3.723110595703125 0.46799999999999997 3.7426105957031255 0.4222499999999999 Q 3.7621105957031253 0.37649999999999995 3.769610595703125 0.33599999999999997 L 3.8041105957031256 0.33599999999999997 M 5.0580688476562505 0.020999999999999908 Q 5.05206884765625 0.09749999999999992 5.04981884765625 0.16799999999999993 Q 5.04756884765625 0.23849999999999993 5.04756884765625 0.2759999999999999 Q 5.04756884765625 0.30899999999999994 5.04906884765625 0.33899999999999997 Q 5.05056884765625 0.369 5.05206884765625 0.3899999999999999 L 5.017568847656251 0.3899999999999999 Q 4.993568847656251 0.2639999999999999 4.95681884765625 0.1904999999999999 Q 4.920068847656251 0.11699999999999999 4.8690688476562505 0.08624999999999994 Q 4.81806884765625 0.05549999999999988 4.74906884765625 0.05549999999999988 L 4.714568847656251 0.05549999999999988 L 4.714568847656251 0.9119999999999999 Q 4.714568847656251 0.972 4.72731884765625 1.002 Q 4.74006884765625 1.032 4.7745688476562504 1.04175 Q 4.809068847656251 1.0514999999999999 4.875068847656251 1.053 L 4.875068847656251 1.083 Q 4.828568847656251 1.0815 4.7513188476562505 1.08 Q 4.67406884765625 1.0785 4.590068847656251 1.0785 Q 4.50756884765625 1.0785 4.434068847656251 1.08 Q 4.360568847656251 1.0815 4.315568847656251 1.083 L 4.315568847656251 1.053 Q 4.383068847656251 1.0514999999999999 4.41756884765625 1.04175 Q 4.452068847656251 1.032 4.46406884765625 1.002 Q 4.476068847656251 0.972 4.476068847656251 0.9119999999999999 L 4.476068847656251 0.05549999999999988 L 4.44306884765625 0.05549999999999988 Q 4.37406884765625 0.05549999999999988 4.32306884765625 0.08624999999999994 Q 4.27206884765625 0.11699999999999999 4.2360688476562505 0.18974999999999997 Q 4.200068847656251 0.26249999999999996 4.173068847656251 0.3899999999999999 L 4.13856884765625 0.3899999999999999 Q 4.14156884765625 0.369 4.1423188476562505 0.33899999999999997 Q 4.1430688476562505 0.30899999999999994 4.1430688476562505 0.2759999999999999 Q 4.1430688476562505 0.23849999999999993 4.14081884765625 0.16799999999999993 Q 4.13856884765625 0.09749999999999992 4.13256884765625 0.020999999999999908 Q 4.20156884765625 0.022499999999999964 4.2833188476562505 0.02400000000000002 Q 4.36506884765625 0.025499999999999856 4.4475688476562505 0.025499999999999856 Q 4.53006884765625 0.025499999999999856 4.596068847656251 0.025499999999999856 Q 4.663568847656251 0.025499999999999856 4.74531884765625 0.025499999999999856 Q 4.827068847656251 0.025499999999999856 4.90956884765625 0.02400000000000002 Q 4.992068847656251 0.022499999999999964 5.0580688476562505 0.020999999999999908 M 5.565138427734375 0.018000000000000016 L 5.929638427734376 0.957 Q 5.950638427734376 1.011 5.976888427734376 1.03125 Q 6.003138427734376 1.0514999999999999 6.024138427734376 1.053 L 6.024138427734376 1.083 Q 5.979138427734376 1.08 5.918388427734375 1.07925 Q 5.857638427734376 1.0785 5.796138427734376 1.0785 Q 5.727138427734376 1.0785 5.665638427734375 1.07925 Q 5.604138427734376 1.08 5.568138427734375 1.083 L 5.568138427734375 1.053 Q 5.6446384277343755 1.05 5.664888427734375 1.02675 Q 5.685138427734375 1.0035 5.655138427734376 0.9269999999999999 L 5.400138427734376 0.22949999999999993 L 5.427138427734375 0.1904999999999999 L 5.1991384277343755 0.7845 Q 5.157138427734376 0.8955 5.157888427734376 0.9524999999999999 Q 5.158638427734376 1.0095 5.194638427734375 1.02975 Q 5.230638427734376 1.05 5.290638427734375 1.053 L 5.290638427734375 1.083 Q 5.241138427734375 1.08 5.196138427734375 1.07925 Q 5.1511384277343755 1.0785 5.1046384277343755 1.0785 Q 5.071638427734376 1.0785 5.042388427734376 1.07925 Q 5.013138427734376 1.08 4.990638427734376 1.083 L 4.990638427734376 1.053 Q 5.022138427734376 1.047 5.055138427734375 1.0125 Q 5.088138427734376 0.978 5.119638427734375 0.8955 L 5.461638427734376 0.018000000000000016 Q 5.485638427734376 0.01949999999999985 5.513388427734376 0.01949999999999985 Q 5.541138427734376 0.01949999999999985 5.565138427734375 0.018000000000000016 M 5.670138427734376 0.651 L 5.670138427734376 0.6809999999999999 L 5.2231384277343755 0.6809999999999999 L 5.238138427734375 0.651 L 5.670138427734376 0.651 M 6.442626708984376 0.0014999999999998348 Q 6.531126708984376 0.0014999999999998348 6.579126708984376 0.02024999999999988 Q 6.627126708984376 0.038999999999999924 6.661626708984375 0.05999999999999983 Q 6.679626708984376 0.07050000000000001 6.6908767089843755 0.07574999999999998 Q 6.702126708984376 0.08099999999999996 6.712626708984375 0.08099999999999996 Q 6.736626708984375 0.08099999999999996 6.745626708984376 0.014999999999999902 L 6.780126708984376 0.014999999999999902 Q 6.778626708984376 0.04349999999999987 6.776376708984376 0.08324999999999994 Q 6.774126708984376 0.123 6.773376708984376 0.1874999999999999 Q 6.772626708984376 0.2519999999999999 6.772626708984376 0.357 L 6.7381267089843755 0.357 Q 6.732126708984376 0.2789999999999999 6.702126708984376 0.2054999999999999 Q 6.672126708984376 0.1319999999999999 6.617376708984375 0.08474999999999999 Q 6.562626708984376 0.03749999999999987 6.483126708984376 0.03749999999999987 Q 6.4111267089843755 0.03749999999999987 6.3646267089843755 0.07799999999999985 Q 6.318126708984376 0.11849999999999994 6.318126708984376 0.1904999999999999 Q 6.318126708984376 0.25049999999999994 6.348126708984376 0.2932499999999999 Q 6.378126708984376 0.33599999999999997 6.435876708984376 0.37649999999999995 Q 6.493626708984376 0.4169999999999999 6.576126708984376 0.474 Q 6.648126708984376 0.5205 6.705126708984376 0.567 Q 6.7621267089843755 0.6134999999999999 6.796626708984376 0.6719999999999999 Q 6.8311267089843755 0.7304999999999999 6.8311267089843755 0.8114999999999999 Q 6.8311267089843755 0.9105 6.779376708984376 0.975 Q 6.727626708984376 1.0394999999999999 6.6436267089843755 1.07175 Q 6.559626708984376 1.1039999999999999 6.459126708984376 1.1039999999999999 Q 6.366126708984376 1.1039999999999999 6.310626708984375 1.0859999999999999 Q 6.255126708984376 1.068 6.217626708984375 1.0485 Q 6.184626708984376 1.0274999999999999 6.166626708984376 1.0274999999999999 Q 6.142626708984376 1.0274999999999999 6.133626708984376 1.0935 L 6.099126708984375 1.0935 Q 6.102126708984375 1.0574999999999999 6.102876708984375 1.0095 Q 6.103626708984375 0.9615 6.1043767089843755 0.88425 Q 6.1051267089843755 0.8069999999999999 6.1051267089843755 0.6884999999999999 L 6.139626708984376 0.6884999999999999 Q 6.145626708984375 0.7875 6.173376708984375 0.87375 Q 6.201126708984376 0.96 6.258876708984376 1.0125 Q 6.3166267089843755 1.065 6.412626708984376 1.065 Q 6.490626708984376 1.065 6.544626708984376 1.023 Q 6.5986267089843755 0.981 6.5986267089843755 0.897 Q 6.5986267089843755 0.8039999999999999 6.535626708984376 0.74325 Q 6.472626708984376 0.6824999999999999 6.373626708984376 0.6179999999999999 Q 6.303126708984376 0.5714999999999999 6.241626708984375 0.5249999999999999 Q 6.180126708984376 0.4784999999999999 6.143376708984376 0.4185 Q 6.1066267089843755 0.35849999999999993 6.1066267089843755 0.2759999999999999 Q 6.1066267089843755 0.1815 6.1538767089843756 0.12074999999999991 Q 6.201126708984376 0.05999999999999983 6.278376708984376 0.030749999999999833 Q 6.355626708984376 0.0014999999999998348 6.442626708984376 0.0014999999999998348 M 7.4281025390625 0.018000000000000016 L 7.792602539062501 0.957 Q 7.813602539062501 1.011 7.839852539062501 1.03125 Q 7.866102539062501 1.0514999999999999 7.887102539062501 1.053 L 7.887102539062501 1.083 Q 7.842102539062501 1.08 7.7813525390625005 1.07925 Q 7.720602539062501 1.0785 7.659102539062501 1.0785 Q 7.590102539062501 1.0785 7.528602539062501 1.07925 Q 7.467102539062501 1.08 7.4311025390625005 1.083 L 7.4311025390625005 1.053 Q 7.507602539062501 1.05 7.527852539062501 1.02675 Q 7.5481025390625005 1.0035 7.518102539062501 0.9269999999999999 L 7.263102539062501 0.22949999999999993 L 7.2901025390625005 0.1904999999999999 L 7.062102539062501 0.7845 Q 7.020102539062501 0.8955 7.020852539062501 0.9524999999999999 Q 7.021602539062501 1.0095 7.057602539062501 1.02975 Q 7.093602539062501 1.05 7.153602539062501 1.053 L 7.153602539062501 1.083 Q 7.1041025390625006 1.08 7.059102539062501 1.07925 Q 7.014102539062501 1.0785 6.967602539062501 1.0785 Q 6.934602539062501 1.0785 6.905352539062501 1.07925 Q 6.876102539062501 1.08 6.853602539062501 1.083 L 6.853602539062501 1.053 Q 6.885102539062501 1.047 6.918102539062501 1.0125 Q 6.951102539062501 0.978 6.9826025390625 0.8955 L 7.324602539062501 0.018000000000000016 Q 7.348602539062501 0.01949999999999985 7.376352539062501 0.01949999999999985 Q 7.404102539062501 0.01949999999999985 7.4281025390625 0.018000000000000016 M 7.533102539062501 0.651 L 7.533102539062501 0.6809999999999999 L 7.086102539062501 0.6809999999999999 L 7.1011025390625 0.651 L 7.533102539062501 0.651 M 8.373061523437501 0.020999999999999908 L 8.373061523437501 0.050999999999999934 Q 8.322061523437501 0.05249999999999999 8.2958115234375 0.062249999999999917 Q 8.2695615234375 0.07199999999999984 8.2605615234375 0.09824999999999995 Q 8.2515615234375 0.12449999999999994 8.2515615234375 0.17999999999999994 L 8.2515615234375 0.942 Q 8.2515615234375 0.9884999999999999 8.2583115234375 1.011 Q 8.2650615234375 1.0334999999999999 8.285311523437501 1.041 Q 8.3055615234375 1.0485 8.3460615234375 1.0485 L 8.419561523437501 1.0485 Q 8.4885615234375 1.0485 8.5448115234375 1.0065 Q 8.601061523437501 0.9644999999999999 8.6393115234375 0.8887499999999999 Q 8.6775615234375 0.813 8.6925615234375 0.714 L 8.7270615234375 0.714 Q 8.7225615234375 0.7649999999999999 8.7225615234375 0.846 Q 8.7225615234375 0.8805 8.7240615234375 0.9464999999999999 Q 8.7255615234375 1.0125 8.7330615234375 1.083 Q 8.656561523437501 1.08 8.560561523437501 1.07925 Q 8.464561523437501 1.0785 8.3895615234375 1.0785 Q 8.338561523437502 1.0785 8.2545615234375 1.0785 Q 8.1705615234375 1.0785 8.0760615234375 1.07925 Q 7.981561523437501 1.08 7.900561523437501 1.083 L 7.900561523437501 1.053 Q 7.948561523437501 1.05 7.972561523437501 1.041 Q 7.996561523437501 1.032 8.004811523437501 1.005 Q 8.013061523437502 0.978 8.013061523437502 0.9239999999999999 L 8.013061523437502 0.17999999999999994 Q 8.013061523437502 0.12449999999999994 8.004811523437501 0.09824999999999995 Q 7.996561523437501 0.07199999999999984 7.971811523437501 0.062249999999999917 Q 7.947061523437501 0.05249999999999999 7.900561523437501 0.050999999999999934 L 7.900561523437501 0.020999999999999908 Q 7.938061523437501 0.022499999999999964 8.001811523437501 0.02400000000000002 Q 8.0655615234375 0.025499999999999856 8.137561523437501 0.025499999999999856 Q 8.2035615234375 0.025499999999999856 8.2673115234375 0.02400000000000002 Q 8.331061523437501 0.022499999999999964 8.373061523437501 0.020999999999999908 M 9.292595947265626 0.020999999999999908 L 9.292595947265626 0.050999999999999934 Q 9.241595947265626 0.05249999999999999 9.215345947265625 0.062249999999999917 Q 9.189095947265626 0.07199999999999984 9.180095947265626 0.09824999999999995 Q 9.171095947265625 0.12449999999999994 9.171095947265625 0.17999999999999994 L 9.171095947265625 0.942 Q 9.171095947265625 0.9884999999999999 9.177845947265626 1.011 Q 9.184595947265626 1.0334999999999999 9.204845947265627 1.041 Q 9.225095947265626 1.0485 9.265595947265625 1.0485 L 9.339095947265626 1.0485 Q 9.408095947265625 1.0485 9.464345947265626 1.0065 Q 9.520595947265626 0.9644999999999999 9.558845947265626 0.8887499999999999 Q 9.597095947265625 0.813 9.612095947265626 0.714 L 9.646595947265626 0.714 Q 9.642095947265625 0.7649999999999999 9.642095947265625 0.846 Q 9.642095947265625 0.8805 9.643595947265625 0.9464999999999999 Q 9.645095947265625 1.0125 9.652595947265626 1.083 Q 9.576095947265626 1.08 9.480095947265626 1.07925 Q 9.384095947265626 1.0785 9.309095947265625 1.0785 Q 9.258095947265627 1.0785 9.174095947265625 1.0785 Q 9.090095947265626 1.0785 8.995595947265626 1.07925 Q 8.901095947265626 1.08 8.820095947265626 1.083 L 8.820095947265626 1.053 Q 8.868095947265626 1.05 8.892095947265625 1.041 Q 8.916095947265626 1.032 8.924345947265627 1.005 Q 8.932595947265627 0.978 8.932595947265627 0.9239999999999999 L 8.932595947265627 0.17999999999999994 Q 8.932595947265627 0.12449999999999994 8.924345947265627 0.09824999999999995 Q 8.916095947265626 0.07199999999999984 8.891345947265625 0.062249999999999917 Q 8.866595947265626 0.05249999999999999 8.820095947265626 0.050999999999999934 L 8.820095947265626 0.020999999999999908 Q 8.857595947265626 0.022499999999999964 8.921345947265626 0.02400000000000002 Q 8.985095947265625 0.025499999999999856 9.057095947265626 0.025499999999999856 Q 9.123095947265625 0.025499999999999856 9.186845947265626 0.02400000000000002 Q 9.250595947265627 0.022499999999999964 9.292595947265626 0.020999999999999908 M 10.542130371093752 0.020999999999999908 Q 10.536130371093751 0.08699999999999997 10.533880371093751 0.14849999999999997 Q 10.531630371093751 0.20999999999999996 10.531630371093751 0.243 Q 10.531630371093751 0.2729999999999999 10.533130371093751 0.29999999999999993 Q 10.534630371093751 0.32699999999999996 10.536130371093751 0.345 L 10.501630371093752 0.345 Q 10.486630371093751 0.23549999999999993 10.455130371093752 0.17174999999999996 Q 10.42363037109375 0.10799999999999998 10.37338037109375 0.08174999999999999 Q 10.32313037109375 0.05549999999999988 10.255630371093751 0.05549999999999988 L 10.19413037109375 0.05549999999999988 Q 10.14913037109375 0.05549999999999988 10.127380371093752 0.06299999999999994 Q 10.105630371093751 0.07050000000000001 10.09813037109375 0.09224999999999994 Q 10.09063037109375 0.11399999999999999 10.09063037109375 0.16199999999999992 L 10.09063037109375 0.942 Q 10.09063037109375 0.9884999999999999 10.09813037109375 1.011 Q 10.105630371093751 1.0334999999999999 10.127380371093752 1.041 Q 10.14913037109375 1.0485 10.19413037109375 1.0485 L 10.267630371093752 1.0485 Q 10.33513037109375 1.0485 10.386880371093751 1.01925 Q 10.438630371093751 0.99 10.47538037109375 0.9195 Q 10.51213037109375 0.849 10.531630371093751 0.729 L 10.56613037109375 0.729 Q 10.56163037109375 0.7769999999999999 10.56163037109375 0.855 Q 10.56163037109375 0.8895 10.56313037109375 0.9524999999999999 Q 10.56463037109375 1.0154999999999998 10.57213037109375 1.083 Q 10.495630371093752 1.08 10.399630371093751 1.07925 Q 10.303630371093751 1.0785 10.22863037109375 1.0785 Q 10.177630371093752 1.0785 10.09363037109375 1.0785 Q 10.00963037109375 1.0785 9.91513037109375 1.07925 Q 9.82063037109375 1.08 9.739630371093751 1.083 L 9.739630371093751 1.053 Q 9.787630371093751 1.05 9.81163037109375 1.041 Q 9.835630371093751 1.032 9.843880371093752 1.005 Q 9.852130371093752 0.978 9.852130371093752 0.9239999999999999 L 9.852130371093752 0.17999999999999994 Q 9.852130371093752 0.12449999999999994 9.843880371093752 0.09824999999999995 Q 9.835630371093751 0.07199999999999984 9.81088037109375 0.062249999999999917 Q 9.786130371093751 0.05249999999999999 9.739630371093751 0.050999999999999934 L 9.739630371093751 0.020999999999999908 Q 9.82063037109375 0.022499999999999964 9.91513037109375 0.02400000000000002 Q 10.00963037109375 0.025499999999999856 10.09363037109375 0.025499999999999856 Q 10.177630371093752 0.025499999999999856 10.22863037109375 0.025499999999999856 Q 10.297630371093751 0.025499999999999856 10.385380371093751 0.02475000000000005 Q 10.47313037109375 0.02400000000000002 10.542130371093752 0.020999999999999908 M 10.308130371093752 0.5339999999999999 Q 10.308130371093752 0.5339999999999999 10.308130371093752 0.5489999999999999 Q 10.308130371093752 0.564 10.308130371093752 0.564 L 10.04563037109375 0.564 Q 10.04563037109375 0.564 10.04563037109375 0.5489999999999999 Q 10.04563037109375 0.5339999999999999 10.04563037109375 0.5339999999999999 L 10.308130371093752 0.5339999999999999 M 10.351630371093751 0.33599999999999997 Q 10.345630371093751 0.4215 10.346380371093751 0.4664999999999999 Q 10.347130371093751 0.5115 10.347130371093751 0.5489999999999999 Q 10.347130371093751 0.5865 10.348630371093751 0.6315 Q 10.350130371093751 0.6764999999999999 10.356130371093752 0.762 L 10.32163037109375 0.762 Q 10.314130371093752 0.7095 10.293880371093751 0.6645 Q 10.273630371093752 0.6194999999999999 10.23613037109375 0.59175 Q 10.198630371093751 0.564 10.13863037109375 0.564 L 10.13863037109375 0.5339999999999999 Q 10.198630371093751 0.5339999999999999 10.23463037109375 0.501 Q 10.270630371093752 0.46799999999999997 10.29013037109375 0.4222499999999999 Q 10.309630371093752 0.37649999999999995 10.317130371093752 0.33599999999999997 L 10.351630371093751 0.33599999999999997" fill="#431a10" fill-rule="nonzero"></path></g><g></g><g clip-path="url(#SvgjsClipPath1003)"><g clip-path="url(#SvgjsClipPath1001cc76a95e-91dc-4d4e-aa56-0a6c9de83b32)"><path d=" M 7.705128396399858 -6.109157059154781 L 7.705128396399858 -3.7904830672710537 L 6.722285725737013 -3.3834145568440075 L 6.722285725737013 -6.109157059154781 Z" fill="#3e7742" transform="matrix(1,0,0,1,0,0)" fill-rule="nonzero"></path></g><g clip-path="url(#a9133d9b1-8484-4745-b741-7a7cce2b0c6acc76a95e-91dc-4d4e-aa56-0a6c9de83b32)"><path d=" M 5.319792313568279 -9.4641511091166 C 2.7795084611343763 -9.4641511091166 0.7127172948361924 -7.397359942818415 0.7127172948361924 -4.857076090384513 C 0.7127172948361924 -4.729812072323205 0.7180077159103341 -4.604017615671382 0.7282946457767221 -4.479104895865249 C 0.7595883512148646 -4.087992370596235 0.8414895979048546 -3.7025921735665026 0.9719479274691593 -3.332553084185882 L 1.906295071619032 -3.6385157696404464 C 1.906295071619032 -3.6385157696404464 1.8169457379224097 -3.894807279454442 1.768744123691337 -4.129349280408075 L 1.768744123691337 -4.129643192689972 C 1.7202410067845693 -4.369087016762622 1.6957251050226705 -4.612769172829685 1.6955599654990383 -4.857076090384513 C 1.6955599654990376 -5.077804214088997 1.715546000668019 -5.294417565846927 1.7537545973146011 -5.504564847403127 C 2.0597172827691526 -7.195148292873428 3.542210832656531 -8.481308438453755 5.319792313568279 -8.481308438453755 C 7.318101918184514 -8.481308438453755 8.944024661637522 -6.855385695000747 8.944024661637522 -4.857076090384513 C 8.944024661637522 -4.195773456116751 8.765913818808071 -3.574736804468845 8.454954624561273 -3.0404042759804932 C 8.288239586103721 -2.7538397766286398 8.083151435017017 -2.4913981406671626 7.845380551907342 -2.260361079826426 C 7.606949134128058 -2.0279277270983043 7.337645083791013 -1.8294359059354521 7.045057408302407 -1.6704791300595856 C 6.515667992507896 -1.382485570492305 5.922447061076091 -1.2320075522807272 5.3197923135682785 -1.2328437423152714 C 4.347933013365953 -1.2322028282101858 3.416828812405442 -1.6232708306846098 2.736891180259342 -2.3176739747963016 L 2.042376458137243 -1.623159252674201 C 2.906196408943279 -0.7440026882064821 4.087274376971307 -0.24915951121545632 5.3197923135682785 -0.25000107165242724 C 6.216518685635368 -0.25000107165242724 7.054462601323098 -0.5071743183121118 7.763085112976245 -0.9527453376676362 C 8.043385511084097 -1.1284844452470697 8.303839277390505 -1.3340487874775526 8.53989527402944 -1.5658463577043245 C 8.775914247015656 -1.7964741346799222 8.986484920796869 -2.051779991379556 9.167985820442869 -2.3273730800988917 C 9.664097588378597 -3.0776849840521985 9.928055835071245 -3.957579883077604 9.926867332300366 -4.857076090384511 C 9.926867332300366 -7.397359942818415 7.86037007828408 -9.4641511091166 5.319792313568279 -9.4641511091166" fill="#3e7742" transform="matrix(1,0,0,1,0,0)" fill-rule="nonzero"></path></g><g clip-path="url(#a9133d9b1-8484-4745-b741-7a7cce2b0c6acc76a95e-91dc-4d4e-aa56-0a6c9de83b32)"><path d=" M 1.7687441236913368 -4.129349280408077 C 1.8031318606732605 -3.9612314551631167 1.9062950716190317 -3.6385157696404473 1.9062950716190317 -3.6385157696404473 L 0.9719479274691558 -3.3325530841858955 C 0.9202565864304982 -3.479183796097595 0.8762084968774158 -3.6283979257417798 0.8399813128975007 -3.779593664950899 L 1.4792405260230046 -4.4191467903583055 L 1.7020260357007668 -4.641932300036068 C 1.7120796975161996 -4.469802316418036 1.734375423237241 -4.29860650174061 1.7687441236913368 -4.129643192689976 Z" fill="#431a10" transform="matrix(1,0,0,1,0,0)" fill-rule="nonzero"></path></g><g clip-path="url(#SvgjsClipPath1001cc76a95e-91dc-4d4e-aa56-0a6c9de83b32)"><path d=" M 7.705128396399858 -4.369265478667344 L 7.705128396399858 -3.7902582833306804 L 6.722285725737013 -3.383189772903634 L 6.722285725737013 -5.352108149330189 Z" fill="#431a10" transform="matrix(1,0,0,1,0,0)" fill-rule="nonzero"></path></g><g clip-path="url(#SvgjsClipPath1001cc76a95e-91dc-4d4e-aa56-0a6c9de83b32)"><path d=" M 1.7690406767816886 -4.129652891819524 L 0.9719505682776106 -3.3322688710335493 L 2.1431910116362944 -3.113598133302343 L 4.567673425002865 -5.538080546668912 L 6.722344363588188 -3.3831156958016937 L 7.70548094653293 -3.790184206228739 L 4.567673425002865 -6.927991727758803 Z" fill="#b88059" transform="matrix(1,0,0,1,0,0)" fill-rule="nonzero"></path></g><g clip-path="url(#SvgjsClipPath1001cc76a95e-91dc-4d4e-aa56-0a6c9de83b32)"><path d=" M 5.052919961606 -2.4002633260092967 L 4.070077290943155 -2.4002633260092967 L 4.070077290943155 -3.3831059966721426 L 5.052919961606 -3.3831059966721426 Z" fill="#b88059" transform="matrix(1,0,0,1,0,0)" fill-rule="nonzero"></path></g><g clip-path="url(#SvgjsClipPath1001cc76a95e-91dc-4d4e-aa56-0a6c9de83b32)"><path d=" M 7.705128396399858 -6.109157059154781 L 7.705128396399858 -3.7904830672710537 L 6.722285725737013 -3.3834145568440075 L 6.722285725737013 -6.109157059154781 Z" fill="#f7ca4d" transform="matrix(1,0,0,1,0,0)" fill-rule="nonzero"></path></g><g clip-path="url(#b9133d9b1-8484-4745-b741-7a7cce2b0c6acc76a95e-91dc-4d4e-aa56-0a6c9de83b32)"><path d=" M 5.319792313568279 -9.4641511091166 C 2.7795084611343763 -9.4641511091166 0.7127172948361924 -7.397359942818415 0.7127172948361924 -4.857076090384513 C 0.7127172948361924 -4.729812072323205 0.7180077159103341 -4.604017615671382 0.7282946457767221 -4.479104895865249 C 0.7595883512148646 -4.087992370596235 0.8414895979048546 -3.7025921735665026 0.9719479274691593 -3.332553084185882 L 1.906295071619032 -3.6385157696404464 C 1.906295071619032 -3.6385157696404464 1.8169457379224097 -3.894807279454442 1.768744123691337 -4.129349280408075 L 1.768744123691337 -4.129643192689972 C 1.7202410067845693 -4.369087016762622 1.6957251050226705 -4.612769172829685 1.6955599654990383 -4.857076090384513 C 1.6955599654990376 -5.077804214088997 1.715546000668019 -5.294417565846927 1.7537545973146011 -5.504564847403127 C 2.0597172827691526 -7.195148292873428 3.542210832656531 -8.481308438453755 5.319792313568279 -8.481308438453755 C 7.318101918184514 -8.481308438453755 8.944024661637522 -6.855385695000747 8.944024661637522 -4.857076090384513 C 8.944024661637522 -4.195773456116751 8.765913818808071 -3.574736804468845 8.454954624561273 -3.0404042759804932 C 8.288239586103721 -2.7538397766286398 8.083151435017017 -2.4913981406671626 7.845380551907342 -2.260361079826426 C 7.606949134128058 -2.0279277270983043 7.337645083791013 -1.8294359059354521 7.045057408302407 -1.6704791300595856 C 6.515667992507896 -1.382485570492305 5.922447061076091 -1.2320075522807272 5.3197923135682785 -1.2328437423152714 C 4.347933013365953 -1.2322028282101858 3.416828812405442 -1.6232708306846098 2.736891180259342 -2.3176739747963016 L 2.042376458137243 -1.623159252674201 C 2.906196408943279 -0.7440026882064821 4.087274376971307 -0.24915951121545632 5.3197923135682785 -0.25000107165242724 C 6.216518685635368 -0.25000107165242724 7.054462601323098 -0.5071743183121118 7.763085112976245 -0.9527453376676362 C 8.043385511084097 -1.1284844452470697 8.303839277390505 -1.3340487874775526 8.53989527402944 -1.5658463577043245 C 8.775914247015656 -1.7964741346799222 8.986484920796869 -2.051779991379556 9.167985820442869 -2.3273730800988917 C 9.664097588378597 -3.0776849840521985 9.928055835071245 -3.957579883077604 9.926867332300366 -4.857076090384511 C 9.926867332300366 -7.397359942818415 7.86037007828408 -9.4641511091166 5.319792313568279 -9.4641511091166" fill="#f7ca4d" transform="matrix(1,0,0,1,0,0)" fill-rule="nonzero"></path></g><g clip-path="url(#b9133d9b1-8484-4745-b741-7a7cce2b0c6acc76a95e-91dc-4d4e-aa56-0a6c9de83b32)"><path d=" M 1.7687441236913368 -4.129349280408077 C 1.8031318606732605 -3.9612314551631167 1.9062950716190317 -3.6385157696404473 1.9062950716190317 -3.6385157696404473 L 0.9719479274691558 -3.3325530841858955 C 0.9202565864304982 -3.479183796097595 0.8762084968774158 -3.6283979257417798 0.8399813128975007 -3.779593664950899 L 1.4792405260230046 -4.4191467903583055 L 1.7020260357007668 -4.641932300036068 C 1.7120796975161996 -4.469802316418036 1.734375423237241 -4.29860650174061 1.7687441236913368 -4.129643192689976 Z" fill="#f7ca4d" transform="matrix(1,0,0,1,0,0)" fill-rule="nonzero"></path></g><g clip-path="url(#SvgjsClipPath1001cc76a95e-91dc-4d4e-aa56-0a6c9de83b32)"><path d=" M 7.705128396399858 -4.369265478667344 L 7.705128396399858 -3.7902582833306804 L 6.722285725737013 -3.383189772903634 L 6.722285725737013 -5.352108149330189 Z" fill="#f7ca4d" transform="matrix(1,0,0,1,0,0)" fill-rule="nonzero"></path></g><g clip-path="url(#SvgjsClipPath1001cc76a95e-91dc-4d4e-aa56-0a6c9de83b32)"><path d=" M 1.7690406767816886 -4.129652891819524 L 0.9719505682776106 -3.3322688710335493 L 2.1431910116362944 -3.113598133302343 L 4.567673425002865 -5.538080546668912 L 6.722344363588188 -3.3831156958016937 L 7.70548094653293 -3.790184206228739 L 4.567673425002865 -6.927991727758803 Z" fill="#f7ca4d" transform="matrix(1,0,0,1,0,0)" fill-rule="nonzero"></path></g><g clip-path="url(#SvgjsClipPath1001cc76a95e-91dc-4d4e-aa56-0a6c9de83b32)"><path d=" M 5.052919961606 -2.4002633260092967 L 4.070077290943155 -2.4002633260092967 L 4.070077290943155 -3.3831059966721426 L 5.052919961606 -3.3831059966721426 Z" fill="#f7ca4d" transform="matrix(1,0,0,1,0,0)" fill-rule="nonzero"></path></g></g></g><defs><clipPath id="SvgjsClipPath1003"><path d=" M 0.7127172948361924 -9.464151109116601 h 9.214154033374488 v 9.214151109116601 h -9.214154033374488 Z"></path></clipPath><clipPath id="SvgjsClipPath1001cc76a95e-91dc-4d4e-aa56-0a6c9de83b32"><path d=" M 0.7127172948361924 -9.464151109116601 L 9.92687132821068 -9.464151109116601 L 9.92687132821068 -0.2500000000000018 L 0.7127172948361924 -0.2500000000000018 Z"></path></clipPath><clipPath id="a9133d9b1-8484-4745-b741-7a7cce2b0c6acc76a95e-91dc-4d4e-aa56-0a6c9de83b32"><path d=" M 0.7127172948361924 -0.25000107165242724 L 9.926867332300366 -0.25000107165242724 L 9.926867332300366 -9.4641511091166 L 0.7127172948361924 -9.4641511091166 Z"></path></clipPath><clipPath id="b9133d9b1-8484-4745-b741-7a7cce2b0c6acc76a95e-91dc-4d4e-aa56-0a6c9de83b32"><path d=" M 0.7127172948361924 -0.25000107165242724 L 9.926867332300366 -0.25000107165242724 L 9.926867332300366 -9.4641511091166 L 0.7127172948361924 -9.4641511091166 Z"></path></clipPath></defs></svg>