<svg xmlns="http://www.w3.org/2000/svg" version="1.1" xmlns:xlink="http://www.w3.org/1999/xlink" xmlns:svgjs="http://svgjs.dev/svgjs" viewBox="0 0 14.555382651206141 9.290486906250372"><g transform="matrix(1,0,0,1,0.9641689867358831,7.117317919514489)"><rect width="14.555382651206141" height="14.555382651206141" x="-0.9641689867358831" y="-9.749765791992374" fill="#efbc9b"></rect><g><path d=" M 0.0945 1.188 L 0.0945 0.9255 L 0.2115 0.9255 L 0.2115 0.28049999999999997 L 0.0945 0.28049999999999997 L 0.0945 0.022499999999999964 L 0.7035 0.022499999999999964 L 0.7035 0.28049999999999997 L 0.5865 0.28049999999999997 L 0.5865 0.9255 L 0.774 0.9255 L 0.8445 0.6689999999999999 L 1.0305 0.6689999999999999 L 1.0305 1.188 L 0.0945 1.188 M 1.368733154296875 1.131 Q 1.2359831542968749 1.053 1.166983154296875 0.91575 Q 1.097983154296875 0.7785 1.097983154296875 0.603 Q 1.097983154296875 0.4214999999999999 1.166983154296875 0.2849999999999999 Q 1.2359831542968749 0.14849999999999985 1.367983154296875 0.07424999999999993 Q 1.4999831542968751 0 1.684483154296875 0 Q 1.868983154296875 0 2.000983154296875 0.07424999999999993 Q 2.132983154296875 0.14849999999999985 2.201983154296875 0.2849999999999999 Q 2.270983154296875 0.4214999999999999 2.270983154296875 0.603 Q 2.270983154296875 0.7785 2.201983154296875 0.91575 Q 2.132983154296875 1.053 2.000233154296875 1.131 Q 1.867483154296875 1.2089999999999999 1.684483154296875 1.2089999999999999 Q 1.501483154296875 1.2089999999999999 1.368733154296875 1.131 M 1.8059831542968752 0.8534999999999999 Q 1.847983154296875 0.7575 1.847983154296875 0.597 Q 1.847983154296875 0.44099999999999995 1.807483154296875 0.35024999999999995 Q 1.766983154296875 0.25949999999999995 1.684483154296875 0.25949999999999995 Q 1.601983154296875 0.25949999999999995 1.561483154296875 0.35024999999999995 Q 1.520983154296875 0.44099999999999995 1.520983154296875 0.597 Q 1.520983154296875 0.7575 1.562983154296875 0.8534999999999999 Q 1.604983154296875 0.9494999999999999 1.684483154296875 0.9494999999999999 Q 1.763983154296875 0.9494999999999999 1.8059831542968752 0.8534999999999999 M 2.618260986328125 1.0725 Q 2.503510986328125 0.9359999999999999 2.503510986328125 0.6719999999999999 L 2.503510986328125 0.28049999999999997 L 2.385010986328125 0.28049999999999997 L 2.385010986328125 0.022499999999999964 L 3.021010986328125 0.022499999999999964 L 3.021010986328125 0.28049999999999997 L 2.913010986328125 0.28049999999999997 L 2.913010986328125 0.7709999999999999 Q 2.913010986328125 0.843 2.9482609863281253 0.8887499999999999 Q 2.983510986328125 0.9344999999999999 3.058510986328125 0.9344999999999999 Q 3.121510986328125 0.9344999999999999 3.1582609863281252 0.897 Q 3.195010986328125 0.8594999999999999 3.195010986328125 0.7949999999999999 L 3.195010986328125 0.28049999999999997 L 3.0750109863281248 0.28049999999999997 L 3.0750109863281248 0.022499999999999964 L 3.553510986328125 0.022499999999999964 L 3.553510986328125 0.28049999999999997 L 3.4410109863281253 0.28049999999999997 L 3.4410109863281253 0.7845 Q 3.4410109863281253 0.9944999999999999 3.318010986328125 1.10175 Q 3.195010986328125 1.2089999999999999 2.9940109863281252 1.2089999999999999 Q 2.733010986328125 1.2089999999999999 2.618260986328125 1.0725 M 3.664494140625 1.188 L 3.664494140625 0.9299999999999999 L 3.805494140625 0.9299999999999999 L 3.805494140625 0.28049999999999997 L 3.664494140625 0.28049999999999997 L 3.664494140625 0.022499999999999964 L 4.648494140625 0.022499999999999964 L 4.648494140625 0.4859999999999999 L 4.460994140625 0.4859999999999999 L 4.390494140625 0.28049999999999997 L 4.180494140625 0.28049999999999997 L 4.180494140625 0.471 L 4.367994140625 0.471 L 4.367994140625 0.6629999999999999 L 4.180494140625 0.6629999999999999 L 4.180494140625 0.9299999999999999 L 4.390494140625 0.9299999999999999 L 4.460994140625 0.6915 L 4.648494140625 0.6915 L 4.648494140625 1.188 L 3.664494140625 1.188 M 4.923005859375 1.188 L 4.923005859375 0.9239999999999999 L 5.0430058593750005 0.9239999999999999 L 5.0430058593750005 0.28049999999999997 L 4.939505859375 0.28049999999999997 L 4.908005859375 0.48149999999999993 L 4.702505859375 0.48149999999999993 L 4.702505859375 0.022499999999999964 L 5.799005859375 0.022499999999999964 L 5.799005859375 0.48149999999999993 L 5.593505859375 0.48149999999999993 L 5.562005859375 0.28049999999999997 L 5.455505859375 0.28049999999999997 L 5.455505859375 0.9239999999999999 L 5.575505859375 0.9239999999999999 L 5.575505859375 1.188 L 4.923005859375 1.188 M 5.878522705078125 1.188 L 5.878522705078125 0.9299999999999999 L 5.994022705078125 0.9299999999999999 L 6.1950227050781255 0.28049999999999997 L 6.042022705078125 0.28049999999999997 L 6.042022705078125 0.022499999999999964 L 6.768022705078125 0.022499999999999964 L 7.027522705078125 0.9299999999999999 L 7.143022705078125 0.9299999999999999 L 7.143022705078125 1.188 L 6.487522705078125 1.188 L 6.487522705078125 0.9299999999999999 L 6.582022705078125 0.9299999999999999 L 6.550522705078125 0.8054999999999999 L 6.286522705078125 0.8054999999999999 L 6.253522705078125 0.9299999999999999 L 6.393022705078125 0.9299999999999999 L 6.393022705078125 1.188 L 5.878522705078125 1.188 M 6.324022705078125 0.6285 L 6.516022705078125 0.6285 L 6.4305227050781255 0.27149999999999996 L 6.324022705078125 0.6285 M 7.604285888671875 1.18875 Q 7.551035888671875 1.1684999999999999 7.489535888671875 1.1204999999999998 L 7.464035888671875 1.188 L 7.227035888671875 1.188 L 7.227035888671875 0.831 L 7.462535888671875 0.831 Q 7.485035888671875 0.8925 7.532285888671875 0.9179999999999999 Q 7.579535888671875 0.9435 7.648535888671875 0.9435 Q 7.690535888671875 0.9435 7.720535888671875 0.92625 Q 7.750535888671875 0.9089999999999999 7.750535888671875 0.8805 Q 7.750535888671875 0.8444999999999999 7.719785888671875 0.8265 Q 7.689035888671875 0.8085 7.633535888671875 0.7934999999999999 Q 7.492535888671875 0.7545 7.401785888671875 0.7094999999999999 Q 7.311035888671875 0.6645 7.255535888671875 0.5804999999999999 Q 7.200035888671875 0.49649999999999994 7.200035888671875 0.35849999999999993 Q 7.200035888671875 0.2519999999999999 7.245785888671875 0.17099999999999982 Q 7.291535888671875 0.08999999999999986 7.377035888671875 0.04499999999999993 Q 7.462535888671875 0 7.578035888671875 0 Q 7.7190358886718755 0 7.801535888671875 0.08999999999999986 L 7.839035888671875 0.020999999999999908 L 8.049035888671876 0.020999999999999908 L 8.049035888671876 0.37049999999999994 L 7.824035888671875 0.37049999999999994 Q 7.792535888671875 0.3044999999999999 7.754285888671875 0.2789999999999999 Q 7.716035888671875 0.25349999999999995 7.650035888671875 0.25349999999999995 Q 7.599035888671875 0.25349999999999995 7.571285888671875 0.27149999999999996 Q 7.543535888671875 0.2895 7.543535888671875 0.32099999999999995 Q 7.543535888671875 0.3554999999999999 7.583285888671875 0.37424999999999997 Q 7.623035888671875 0.3929999999999999 7.696535888671875 0.4095 Q 7.827035888671875 0.4394999999999999 7.917785888671875 0.4837499999999999 Q 8.008535888671876 0.5279999999999999 8.063285888671874 0.6097499999999999 Q 8.118035888671875 0.6915 8.118035888671875 0.8205 Q 8.118035888671875 0.9299999999999999 8.072285888671875 1.0185 Q 8.026535888671875 1.107 7.941785888671875 1.158 Q 7.857035888671875 1.2089999999999999 7.747535888671875 1.2089999999999999 Q 7.657535888671875 1.2089999999999999 7.604285888671875 1.18875 M 8.197553466796874 1.188 L 8.197553466796874 0.9299999999999999 L 8.313053466796875 0.9299999999999999 L 8.514053466796875 0.28049999999999997 L 8.361053466796875 0.28049999999999997 L 8.361053466796875 0.022499999999999964 L 9.087053466796874 0.022499999999999964 L 9.346553466796875 0.9299999999999999 L 9.462053466796874 0.9299999999999999 L 9.462053466796874 1.188 L 8.806553466796874 1.188 L 8.806553466796874 0.9299999999999999 L 8.901053466796874 0.9299999999999999 L 8.869553466796875 0.8054999999999999 L 8.605553466796875 0.8054999999999999 L 8.572553466796876 0.9299999999999999 L 8.712053466796874 0.9299999999999999 L 8.712053466796874 1.188 L 8.197553466796874 1.188 M 8.643053466796875 0.6285 L 8.835053466796875 0.6285 L 8.749553466796876 0.27149999999999996 L 8.643053466796875 0.6285 M 9.556566650390625 1.188 L 9.556566650390625 0.9255 L 9.673566650390624 0.9255 L 9.673566650390624 0.28049999999999997 L 9.556566650390625 0.28049999999999997 L 9.556566650390625 0.022499999999999964 L 10.165566650390625 0.022499999999999964 L 10.165566650390625 0.28049999999999997 L 10.048566650390626 0.28049999999999997 L 10.048566650390626 0.9255 L 10.236066650390626 0.9255 L 10.306566650390625 0.6689999999999999 L 10.492566650390625 0.6689999999999999 L 10.492566650390625 1.188 L 9.556566650390625 1.188 M 10.6080498046875 1.188 L 10.6080498046875 0.9255 L 10.7250498046875 0.9255 L 10.7250498046875 0.28049999999999997 L 10.6080498046875 0.28049999999999997 L 10.6080498046875 0.022499999999999964 L 11.2170498046875 0.022499999999999964 L 11.2170498046875 0.28049999999999997 L 11.100049804687501 0.28049999999999997 L 11.100049804687501 0.9255 L 11.287549804687501 0.9255 L 11.3580498046875 0.6689999999999999 L 11.5440498046875 0.6689999999999999 L 11.5440498046875 1.188 L 10.6080498046875 1.188 M 11.635532958984374 1.188 L 11.635532958984374 0.9299999999999999 L 11.776532958984374 0.9299999999999999 L 11.776532958984374 0.28049999999999997 L 11.635532958984374 0.28049999999999997 L 11.635532958984374 0.022499999999999964 L 12.619532958984376 0.022499999999999964 L 12.619532958984376 0.4859999999999999 L 12.432032958984376 0.4859999999999999 L 12.361532958984375 0.28049999999999997 L 12.151532958984376 0.28049999999999997 L 12.151532958984376 0.471 L 12.339032958984376 0.471 L 12.339032958984376 0.6629999999999999 L 12.151532958984376 0.6629999999999999 L 12.151532958984376 0.9299999999999999 L 12.361532958984375 0.9299999999999999 L 12.432032958984376 0.6915 L 12.619532958984376 0.6915 L 12.619532958984376 1.188 L 11.635532958984374 1.188" fill="#ffffff" fill-rule="nonzero"></path></g><g></g><g clip-path="url(#SvgjsClipPath1017)"><g clip-path="url(#SvgjsClipPath10146c08362e-b02f-48c0-933a-fba099fd9247)"><path d=" M 5.141408570443999 -6.153148932778607 L 9.26509680525649 -6.153148932778607 L 4.96953984086015 -2.1854586664847893 L 0.845851606047658 -2.1854586664847893 Z" fill="#d6dac8" transform="matrix(1,0,0,1,0,0)" fill-rule="nonzero"></path></g><g clip-path="url(#SvgjsClipPath10146c08362e-b02f-48c0-933a-fba099fd9247)"><path d=" M 7.657504836874226 -4.217690266293818 L 11.781193071686717 -4.217690266293818 L 7.485636107290375 -0.25 L 3.361947872477884 -0.25 Z" fill="#fbf3d5" transform="matrix(1,0,0,1,0,0)" fill-rule="nonzero"></path></g></g></g><defs><clipPath id="SvgjsClipPath1017"><path d=" M 0.845851606047658 -6.153148932778607 h 10.935341465639059 v 5.903148932778607 h -10.935341465639059 Z"></path></clipPath><clipPath id="SvgjsClipPath10146c08362e-b02f-48c0-933a-fba099fd9247"><path d=" M 0.845851606047658 -6.153148932778607 L 11.781193071686717 -6.153148932778607 L 11.781193071686717 -0.25 L 0.845851606047658 -0.25 Z"></path></clipPath></defs></svg>